HIERARCHY
ROOT HipCenter
{
    OFFSET 0.0 0.0 -0.0
    CHANNELS 6 Xposition Yposition Zposition Zrotation Xrotation Yrotation
    JOINT Spine
    {
        OFFSET 0.0 11.62181282043457 0.0
        CHANNELS 3 Zrotation Xrotation Yrotation
        JOINT ShoulderCenter
        {
            OFFSET 0.0 32.08944320678711 0.0
            CHANNELS 3 Zrotation Xrotation Yrotation
            JOINT LeftShoulder
            {
                OFFSET 20.294355392456055 0.0 0.0
                CHANNELS 3 Zrotation Xrotation Yrotation
                JOINT LeftElbow
                {
                    OFFSET 27.916940689086914 0.0 0.0
                    CHANNELS 3 Zrotation Xrotation Yrotation
                    JOINT LeftWrist
                    {
                        OFFSET 28.447086334228516 0.0 0.0
                        CHANNELS 3 Zrotation Xrotation Yrotation
                        JOINT LeftHand
                        {
                            OFFSET 3.9296083450317383 0.0 0.0
                            CHANNELS 3 Zrotation Xrotation Yrotation
                            End Site
                            {
                                OFFSET 1.5718432664871216 0.0 0.0
                            }
                        }
                    }
                }
            }
            JOINT RightShoulder
            {
                OFFSET -20.294355392456055 0.0 0.0
                CHANNELS 3 Zrotation Xrotation Yrotation
                JOINT RightElbow
                {
                    OFFSET -27.916940689086914 0.0 0.0
                    CHANNELS 3 Zrotation Xrotation Yrotation
                    JOINT RightWrist
                    {
                        OFFSET -28.447086334228516 0.0 0.0
                        CHANNELS 3 Zrotation Xrotation Yrotation
                        JOINT RightHand
                        {
                            OFFSET -3.9296083450317383 0.0 0.0
                            CHANNELS 3 Zrotation Xrotation Yrotation
                            End Site
                            {
                                OFFSET -1.5718432664871216 0.0 0.0
                            }
                        }
                    }
                }
            }
            End Site
            {
                OFFSET 0.0 12.835777282714844 0.0
            }
        }
    }
    JOINT LeftHip
    {
        OFFSET 14.179494857788086 0.0 0.0
        CHANNELS 3 Zrotation Xrotation Yrotation
        JOINT LeftKnee
        {
            OFFSET 0.0 -42.84370803833008 0.0
            CHANNELS 3 Zrotation Xrotation Yrotation
            JOINT LeftAnkle
            {
                OFFSET 0.0 -40.930877685546875 0.0
                CHANNELS 3 Zrotation Xrotation Yrotation
                JOINT LeftFoot
                {
                    OFFSET 0.0 -12.58619499206543 0.0
                    CHANNELS 3 Zrotation Xrotation Yrotation
                    End Site
                    {
                        OFFSET 0.0 0.0 5.034478187561035
                    }
                }
            }
        }
    }
    JOINT RightHip
    {
        OFFSET -14.179494857788086 0.0 0.0
        CHANNELS 3 Zrotation Xrotation Yrotation
        JOINT RightKnee
        {
            OFFSET 0.0 -42.84370803833008 0.0
            CHANNELS 3 Zrotation Xrotation Yrotation
            JOINT RightAnkle
            {
                OFFSET 0.0 -40.930877685546875 0.0
                CHANNELS 3 Zrotation Xrotation Yrotation
                JOINT RightFoot
                {
                    OFFSET 0.0 -12.58619499206543 0.0
                    CHANNELS 3 Zrotation Xrotation Yrotation
                    End Site
                    {
                        OFFSET 0.0 0.0 5.034478187561035
                    }
                }
            }
        }
    }
}
MOTION
Frames: 9
Frame Time: 0.03333333333333333
56.400001525878906 -2.8999998569488525 -2.8000001907348633 0.9877829528215427 2.9604977138463004 -30.483773281166442 -1.269891607831639 6.2096528388728105 0.44358186671646554 -1.1135971980175898e-07 8.32634686146402e-07 2.900735668257181 91.58141074875569 -12.78051902032462 172.48742713810768 2.4595980633957223e-06 -3.320020184235385e-06 109.30319217657977 3.608175767414976e-05 -86.57372554504383 29.110793144185752 -3.9756933518293955e-16 1.9878466759146975e-16 4.391898749599035e-15 -101.72633145361799 -19.61919758833167 -175.91566036425934 2.005623260378745e-06 2.3032514580348558e-06 -105.62290806099233 2.6090215071087346e-06 -12.735641674571506 -42.60502552050816 6.361109362927033e-15 -3.180554681463516e-15 3.1805546814635168e-15 7.317893047785259 -25.13116128061968 -0.05979840641027684 -13.338162137942412 39.52336154499387 -27.767952797025014 90.67933090614731 -24.453613141038794 144.50471109230878 0.0 -1.5902773407317582e-15 0.0 -0.4468830170002719 -11.00826379910273 18.377555013569005 15.79885425208408 32.70986813929001 20.455745343597147 -97.31512531680387 -26.952709197535107 -147.91788343583585 2.782985346280577e-15 2.896626008095417e-32 1.1927080055488188e-15
56.400001525878906 -3.4000000953674316 -2.8999998569488525 1.4814720844553082 0.9874292775449628 -33.6322752067138 -0.07736396786951662 7.131986330194478 0.2724859734824584 4.5800969470835275e-07 7.401734774686401e-07 1.4991652826740185 90.5974479230288 -12.781488343326513 172.44211366757392 -2.0275219851258353e-06 2.356915198922551e-06 109.4476300189798 1.7406718976963356e-05 -85.45639084430827 27.560561546914172 -2.9224887403105544e-32 -7.951386703658791e-16 -4.211750144594266e-15 -100.18469461628735 -19.47193745708625 -169.86596078146286 -1.986350084166564e-06 -3.3104952153160797e-06 -107.47840970977985 -2.0190079091385046e-06 -13.58897713376244 -43.94345568548293 0.0 -3.1805546814635168e-15 0.0 6.8300471032280505 -23.609618648303854 -1.4515383356667375 -16.13888822120904 39.695969930458915 -25.70752616881733 93.31092382647844 -21.330787779652823 148.7101805225646 -3.1805546814635168e-15 -4.770832022195275e-15 -1.3241718894150476e-31 -1.8712851199692788 -11.276541397030925 17.79655103281976 16.063108945802394 35.63104018111286 22.454963795930816 -98.51277876872338 -26.731726467792473 -148.76630107526177 1.9878466759146976e-15 6.3611093629270335e-15 3.975693351829396e-15
56.30000305175781 -3.9000000953674316 -3.200000047683716 1.9749413766575468 8.615207338021975e-08 -35.63631094278093 1.345698247955548 7.327047443936006 0.0216722668056065 4.961957336571568e-07 3.222798569603815e-07 -0.7707829219934296 89.85870271047224 -12.118930022616823 172.68367145730437 1.4928713200327076e-06 -4.9051176200158546e-06 109.4377748546849 1.2368544714854983e-05 -83.34296697032646 26.130694290928265 -7.951386703658792e-16 -7.951386703658792e-16 2.087239009710433e-15 -99.28929754841806 -18.91110760660347 -164.91607970302462 4.828136148079303e-06 -5.946291159161049e-07 -109.56059318864763 -4.0147106532407095e-07 -10.501350271378278 -42.676677229709924 -6.3611093629270335e-15 -3.531125038440127e-31 6.3611093629270335e-15 6.918005510513307 -23.582988428039908 -1.1664613946625801 -18.113999715190747 40.95093166394158 -25.09216692776054 92.15214190999708 -19.479988754924918 148.1171988632513 0.0 0.0 0.0 -2.401066507770601 -12.314028064099784 16.62026011404563 15.294297131167786 38.23729872558466 24.65453233756318 -98.62864459408783 -27.473818446014 -148.08105811582234 -9.14409470920761e-15 6.361109362927033e-15 5.963540027744094e-15
56.30000305175781 -4.300000190734863 -3.0999999046325684 2.9609661180361555 -1.479481102630118 -37.43475197471211 2.2074680315305364 7.580952203771549 -0.26875240446965953 -5.281992333235428e-07 9.24808774713012e-07 -2.5276915080173725 88.74767979103997 -12.066159435446554 172.8166394993055 2.4585087859128265e-06 -6.456141211392339e-06 109.4684951160465 5.034335791417028e-06 -84.46274376216692 26.370794397822774 0.0 0.0 -6.957463365701441e-16 -99.02759653964212 -17.93761557235795 -160.39619034949837 1.9558141947411183e-06 6.491057315765946e-06 -110.57046252735196 2.0024270819779656e-06 -7.917882736707942 -44.92909780500213 0.0 -6.3611093629270335e-15 0.0 6.2434082956659624 -23.509707958727855 -1.0723549795783307 -20.1096621860845 42.55763847320585 -24.878385791243744 94.51366509614968 -19.05800318498692 149.63276132700736 0.0 0.0 0.0 -3.617176823633743 -12.778828222984934 15.723372052685912 14.462314832102638 40.58595765057592 26.03025320598127 -100.42771099390625 -28.208624454704996 -148.4145711984502 7.951386703658792e-16 -1.9310840053969444e-32 -2.782985346280577e-15
56.30000305175781 -4.900000095367432 -3.0999999046325684 3.483294246280048 -2.4849592999757406 -38.719728670245225 3.5297595551138454 7.802962662231498 -0.42505366012297324 3.5134556112698175e-07 5.213660667550404e-07 -5.171044397208541 87.97252191169291 -11.954388362335218 173.4361926053167 -5.988851262218077e-07 8.506829538267482e-08 109.16812672099968 -7.64496346456774e-06 -82.52752308962555 27.722746726439834 6.207055731633036e-33 1.5902773407317584e-15 -4.472655020808071e-16 -98.95675427260463 -17.996432609990414 -157.64799619987383 4.649947659429796e-06 1.0924200912080792e-06 -111.49828169990894 9.295709768452085e-07 -7.101952087877749 -44.149382864325354 -2.648343778830095e-31 4.770832022195275e-15 6.3611093629270335e-15 5.456515008421956 -22.809676475415028 -3.17997931524453 -22.574647129067433 41.772110251650496 -22.009221931403793 95.83216848280644 -19.900575915582834 148.01502344217582 -3.180554681463516e-15 -6.361109362927033e-15 3.180554681463516e-15 -4.498972950996373 -13.773832173400795 15.48904346217651 14.824499644118362 43.332265584915184 28.206547809655085 -100.32876969958019 -25.81768800617573 -149.920217403378 7.951386703658792e-15 -8.276074308844047e-32 -1.1927080055488188e-15
56.30000305175781 -5.400000095367432 -3.0999999046325684 3.453338692371579 -2.9555695689314345 -40.51217909697725 5.227774834271623 8.277401778867201 -0.6498072918590708 6.903063192215035e-07 2.1679974147856306e-08 -6.510278208730793 87.24597122558514 -11.903870677738363 174.16643023658938 8.584377808646258e-07 2.4498342412355516e-06 109.04827839172742 -2.2153619832260123e-05 -82.53086804603873 28.092562576784886 0.0 0.0 1.490885006936024e-16 -99.61475113295432 -17.93407659869245 -155.78500380883708 -1.612372955707492e-06 3.015357652010518e-06 -113.01072179941242 -2.9515394426121396e-07 -8.712420577328855 -43.289135439381596 0.0 0.0 0.0 5.8985693861592985 -22.653301319888755 -3.4464666252325844 -24.9505427516635 42.06018048882751 -19.977794083166767 96.59862604461617 -18.706303469527917 148.18544434533524 3.1805546814635176e-15 -1.5902773407317588e-15 4.4139062980501586e-32 -4.123965689839264 -14.624578504844134 14.489921912126457 12.745217169013 45.8851684291914 31.138508760616823 -101.11154246887443 -25.51229864681919 -150.90520096710281 1.987846675914698e-15 -3.975693351829396e-16 -3.975693351829396e-16
56.30000305175781 -5.799999713897705 -2.8999998569488525 3.945201228063628 -3.4451532568041667 -42.002454605966655 6.205125095315721 7.956249068423669 -0.7239188674047409 1.9768363169718509e-07 -2.766717840113701e-07 -7.979104702576225 86.39327952588951 -11.7620494190352 174.05306142192254 9.022693216591591e-08 9.533868147386353e-07 108.88391439551012 7.1925559333937395e-06 -85.6670856903928 28.15536334676173 2.6552405074207984e-32 1.5902773407317584e-15 -1.9133024255678967e-15 -99.46307209782124 -18.48664126468909 -154.23966405334681 -3.725189463883267e-06 5.671793530236101e-07 -113.79702751415628 2.490517888358613e-06 -6.651770154788591 -44.98348755731932 6.3611093629270335e-15 -6.3611093629270335e-15 3.531125038440127e-31 5.8216165730231415 -22.629307494331268 -3.4357428936912275 -26.72603342027329 42.2645047842707 -18.5556136475152 96.25359254093993 -17.946493950224554 147.1980373862891 -3.1805546814635168e-15 -1.7655625192200634e-31 6.3611093629270335e-15 -4.661230096229523 -15.668054209046266 12.86590778001625 10.690345983308172 48.11146848594516 34.717738395359426 -102.03797893152948 -25.661278026787446 -151.94513055706378 1.5902773407317578e-15 5.9635400277440935e-15 7.55381736847585e-15
56.5 -5.900000095367432 -2.700000047683716 4.969740518959404 -3.964469498375052 -43.68157856228407 6.303684818696942 7.920012641161697 -0.7566470787902871 3.280661860429779e-07 -9.449547250556223e-07 -8.635748295437931 86.36957972757212 -12.018958238213312 174.1369544602379 4.8432676668793575e-06 2.0172580539200399e-07 109.35489017824348 6.052134852960875e-07 -85.2001990749812 27.884679893734905 7.241565020238542e-33 1.5902773407317584e-15 -5.218097524276082e-16 -99.75688978915399 -18.454926222009544 -155.01582105116688 1.4044653549209569e-06 3.078345943365801e-06 -114.11471693209317 1.016682647583353e-06 -7.37909215069919 -44.090367369532856 2.2069531490250793e-31 7.951386703658792e-15 -3.1805546814635168e-15 5.056805765041288 -22.792924270530936 -3.9989966614384054 -28.468566176360746 41.51104415709777 -16.604944306934335 96.54897777504866 -16.922506410776716 147.36474634301368 6.361109362927035e-15 -1.5902773407317588e-15 8.827812596100317e-32 -5.685421317247037 -16.891453076267688 11.995696743768773 8.624024073906853 49.748809049708626 38.63045107563434 -102.73397946492632 -25.83807372897001 -153.04025007348727 6.162324695335565e-15 4.810468192015602e-31 8.945310041616142e-15
56.69999694824219 -6.099999904632568 -2.5 5.417014545601669 -3.927622003131933 -44.292265101995575 6.990306798747041 7.665677873667896 -0.7765578165152194 -7.00710460423566e-08 4.924919773596565e-07 -9.61775086053172 86.13549336607605 -12.621082874765811 174.01124342812895 -2.4517442990155626e-06 2.237949657782119e-06 109.33733615701706 4.1540919385316886e-05 -87.54853042298379 27.541990215942935 -3.9756933518293955e-16 7.327774127622334e-33 -2.1120870931593663e-15 -100.11562624402089 -18.371941551220498 -156.34264341129747 -2.759951477159015e-06 8.620616772526279e-07 -113.74939857018627 5.786106014530627e-08 -4.6782085339178 -44.321711640702546 0.0 0.0 3.1805546814635168e-15 5.014922160059927 -23.022464431275264 -4.308849379361895 -29.530030113809286 41.42966531234335 -15.532388559716281 96.75277386978593 -17.55087141349135 145.42601504748328 0.0 0.0 -3.1805546814635168e-15 -6.097818591121724 -17.961010358030382 10.734491064334586 7.27321487850855 50.880900771061285 40.83862677814251 -103.44905207339399 -25.316073100636185 -154.1671198571258 3.975693351829392e-16 -6.3611093629270335e-15 -7.156248033292914e-15
